# Wavefront OBJ file
# Exported by Maverick Model 3D 1.3.12
# Fri Sep 04 09:00:43 2020

mtllib ORG_BULL_DOZER.mtl

# 80 Vertices
v -8.5625 1.8125 -8.375
v -2.4375 1.8125 -8.375
v -2.4375 3.6875 -7.3125
v -8.5625 3.6875 -7.3125
v -2.4375 3.75 -0.3125
v -8.5625 3.75 -0.3125
v -2.4375 3.6875 6.5625
v -8.5625 3.6875 6.5625
v -2.4375 1.8125 7.625
v -8.5625 1.8125 7.625
v -2.4375 -0.0 6.5625
v -8.5625 -0.0 6.5625
v -2.4375 -0.0625 -0.3125
v -8.5625 -0.0625 -0.3125
v -2.4375 -0.0 -7.3125
v -8.5625 -0.0 -7.3125
v -2.25 4.375 5.6875
v -2.25 3.5625 10.0625
v -3.4375 3.5625 10.0625
v -3.4375 4.375 5.6875
v 3.25 4.375 5.6875
v 3.25 3.5625 10.0625
v 2.0625 3.5625 10.0625
v 2.0625 4.375 5.6875
v -3.75 5.25 5.6875
v -3.75 5.25 9.1875
v -4.9375 5.25 9.1875
v -4.9375 5.25 5.6875
v 0.25 5.25 5.6875
v 0.25 5.25 9.1875
v -0.875 5.25 9.1875
v -0.875 5.25 5.6875
v 4.875 5.25 5.6875
v 4.875 5.25 9.1875
v 3.6875 5.25 9.1875
v 3.6875 5.25 5.6875
v 1.5625 15.4375 -7.0625
v 1.5625 18.0625 0.8125
v -6.3125 18.0625 0.8125
v -6.3125 15.4375 -7.0625
v -5.75 15.3125 -6.625
v 1.0 15.3125 -6.625
v 1.0 9.625 -6.625
v -5.75 9.625 -6.625
v 1.0 17.5625 0.125
v 1.0 9.625 0.125
v -5.75 17.5625 0.125
v -5.75 9.625 0.125
v 5.0 9.625 5.625
v -5.6875 9.625 5.625
v -5.6875 9.625 -6.875
v 5.0 9.625 -6.875
v 5.0 3.875 -6.875
v 5.0 3.875 5.625
v -5.6875 3.875 5.625
v -5.6875 3.875 -6.875
v 2.375 1.8125 -8.375
v 8.5 1.8125 -8.375
v 8.5 3.6875 -7.3125
v 2.375 3.6875 -7.3125
v 8.5 3.75 -0.3125
v 2.375 3.75 -0.3125
v 8.5 3.6875 6.5625
v 2.375 3.6875 6.5625
v 8.5 1.8125 7.625
v 2.375 1.8125 7.625
v 8.5 -0.0 6.5625
v 2.375 -0.0 6.5625
v 8.5 -0.0625 -0.3125
v 2.375 -0.0625 -0.3125
v 8.5 -0.0 -7.3125
v 2.375 -0.0 -7.3125
v -7.8125 -0.0 15.5
v 7.8125 -0.0 15.5
v 7.8125 1.8125 11.0
v -7.8125 1.8125 11.0
v 7.8125 6.3125 9.125
v -7.8125 6.3125 9.125
v 7.8125 10.8125 11.0
v -7.8125 10.8125 11.0

# 204 Texture Coordinates
vt 1.000774 0.008709
vt 0.003028 0.008709
vt 0.003028 0.995235
vt 1.000774 0.008709
vt 0.003028 0.995235
vt 1.000774 0.995235
vt 1.000774 0.008709
vt 0.003028 0.008709
vt 0.003028 0.995235
vt 1.000774 0.008709
vt 0.003028 0.995235
vt 1.000774 0.995235
vt 1.000774 0.008709
vt 0.003028 0.008709
vt 0.003028 0.995235
vt 1.000774 0.008709
vt 0.003028 0.995235
vt 1.000774 0.995235
vt 1.000774 0.008709
vt 0.003028 0.008709
vt 0.003028 0.995235
vt 1.000774 0.008709
vt 0.003028 0.995235
vt 1.000774 0.995235
vt 1.000774 0.008709
vt 0.003028 0.008709
vt 0.003028 0.995235
vt 1.000774 0.008709
vt 0.003028 0.995235
vt 1.000774 0.995235
vt 1.000774 0.008709
vt 0.003028 0.008709
vt 0.003028 0.995235
vt 1.000774 0.008709
vt 0.003028 0.995235
vt 1.000774 0.995235
vt 1.000774 0.008709
vt 0.003028 0.008709
vt 0.003028 0.995235
vt 1.000774 0.008709
vt 0.003028 0.995235
vt 1.000774 0.995235
vt 1.000774 0.008709
vt 0.003028 0.008709
vt 0.003028 0.995235
vt 1.000774 0.008709
vt 0.003028 0.995235
vt 1.000774 0.995235
vt 1.000774 0.008709
vt 0.003028 0.008709
vt 0.003028 0.995235
vt 1.000774 0.008709
vt 0.003028 0.995235
vt 1.000774 0.995235
vt 0.003028 0.008709
vt 1.000774 0.008709
vt 1.000774 0.995235
vt 0.003028 0.008709
vt 1.000774 0.995235
vt 0.003028 0.995235
vt 1.000774 0.008709
vt 0.003028 0.008709
vt 0.003028 0.995235
vt 1.000774 0.008709
vt 0.003028 0.995235
vt 1.000774 0.995235
vt 1.000774 0.008709
vt 0.003028 0.008709
vt 0.003028 0.995235
vt 1.000774 0.008709
vt 0.003028 0.995235
vt 1.000774 0.995235
vt 0.003028 0.995235
vt 1.000774 0.995235
vt 1.000774 0.008709
vt 0.003028 0.995235
vt 1.000774 0.008709
vt 0.003028 0.008709
vt 0.003028 0.995235
vt 1.000774 0.995235
vt 1.000774 0.008709
vt 0.003028 0.995235
vt 1.000774 0.008709
vt 0.003028 0.008709
vt 0.003028 0.995235
vt 1.000774 0.995235
vt 1.000774 0.008709
vt 0.003028 0.995235
vt 1.000774 0.008709
vt 0.003028 0.008709
vt 0.003028 0.995235
vt 1.000774 0.995235
vt 1.000774 0.008709
vt 0.003028 0.995235
vt 1.000774 0.008709
vt 0.003028 0.008709
vt 0.723822 0.771234
vt 0.50667 0.771234
vt 0.50667 0.995007
vt 0.723822 0.771234
vt 0.50667 0.995007
vt 0.723822 0.995007
vt 0.50667 0.995007
vt 0.723822 0.995007
vt 0.723822 0.771234
vt 0.50667 0.995007
vt 0.723822 0.771234
vt 0.50667 0.771234
vt 0.229122 0.497197
vt 0.229122 0.269734
vt 0.002935 0.269734
vt 0.229122 0.497197
vt 0.002935 0.269734
vt 0.002935 0.497197
vt 0.816682 0.690528
vt 0.816682 0.690528
vt 0.816682 0.690528
vt 0.816682 0.690528
vt 0.816682 0.690528
vt 0.816682 0.690528
vt 0.816682 0.690528
vt 0.816682 0.690528
vt 0.816682 0.690528
vt 0.816682 0.690528
vt 0.816682 0.690528
vt 0.816682 0.690528
vt 0.816682 0.690528
vt 0.816682 0.690528
vt 0.816682 0.690528
vt 0.816682 0.690528
vt 0.816682 0.690528
vt 0.816682 0.690528
vt 0.816682 0.690528
vt 0.816682 0.690528
vt 0.816682 0.690528
vt 0.816682 0.690528
vt 0.816682 0.690528
vt 0.816682 0.690528
vt 0.816682 0.690528
vt 0.816682 0.690528
vt 0.816682 0.690528
vt 0.816682 0.690528
vt 0.816682 0.690528
vt 0.816682 0.690528
vt 0.729847 0.026662
vt 0.729847 0.026662
vt 0.729847 0.026662
vt 0.729847 0.026662
vt 0.729847 0.026662
vt 0.729847 0.026662
vt 0.729847 0.026662
vt 0.729847 0.026662
vt 0.729847 0.026662
vt 0.729847 0.026662
vt 0.729847 0.026662
vt 0.729847 0.026662
vt 0.729847 0.026662
vt 0.729847 0.026662
vt 0.729847 0.026662
vt 0.729847 0.026662
vt 0.729847 0.026662
vt 0.729847 0.026662
vt 0.816682 0.204171
vt 0.816682 0.204171
vt 0.816682 0.204171
vt 0.816682 0.204171
vt 0.816682 0.204171
vt 0.816682 0.204171
vt 0.816682 0.204171
vt 0.816682 0.204171
vt 0.816682 0.204171
vt 0.816682 0.204171
vt 0.816682 0.204171
vt 0.816682 0.204171
vt 0.816682 0.204171
vt 0.816682 0.204171
vt 0.816682 0.204171
vt 0.816682 0.204171
vt 0.816682 0.204171
vt 0.816682 0.204171
vt 0.816682 0.204171
vt 0.816682 0.204171
vt 0.816682 0.204171
vt 0.816682 0.204171
vt 0.816682 0.204171
vt 0.816682 0.204171
vt 0.816682 0.204171
vt 0.816682 0.204171
vt 0.816682 0.204171
vt 0.816682 0.204171
vt 0.816682 0.204171
vt 0.816682 0.204171
vt 0.816682 0.204171
vt 0.816682 0.204171
vt 0.816682 0.204171
vt 0.816682 0.204171
vt 0.816682 0.204171
vt 0.816682 0.204171
vt 0.816682 0.204171
vt 0.816682 0.204171
vt 0.816682 0.204171
vt 0.816682 0.204171
vt 0.816682 0.204171
vt 0.816682 0.204171

# 204 Vertex Normals
vn 0.0 0.750469 -0.660906
vn 0.0 0.942035 -0.335514
vn 0.0 0.493013 -0.870022
vn 0.0 0.750469 -0.660906
vn 0.0 0.493013 -0.870022
vn 0.0 0.493013 -0.870022
vn 0.0 0.999996 -0.002922
vn 0.0 0.999995 0.003084
vn 0.0 0.942035 -0.335514
vn 0.0 0.999996 -0.002922
vn 0.0 0.942035 -0.335514
vn 0.0 0.750469 -0.660906
vn 0.0 0.941996 0.335623
vn 0.0 0.750438 0.660941
vn 0.0 0.999995 0.003084
vn 0.0 0.941996 0.335623
vn 0.0 0.999995 0.003084
vn 0.0 0.999996 -0.002922
vn 0.0 0.493013 0.870022
vn 0.0 0.493013 0.870022
vn 0.0 0.750438 0.660941
vn 0.0 0.493013 0.870022
vn 0.0 0.750438 0.660941
vn 0.0 0.941996 0.335623
vn 0.0 0.505719 -0.862698
vn 0.0 0.505719 -0.862698
vn 0.0 0.757313 -0.653053
vn 0.0 0.505719 -0.862698
vn 0.0 0.757313 -0.653053
vn 0.0 0.943399 -0.33166
vn 0.0 0.943399 -0.33166
vn 0.0 0.757313 -0.653053
vn 0.0 0.999995 -0.003084
vn 0.0 0.943399 -0.33166
vn 0.0 0.999995 -0.003084
vn 0.0 0.999996 0.002922
vn 0.0 0.999996 0.002922
vn 0.0 0.999995 -0.003084
vn 0.0 0.943437 0.331551
vn 0.0 0.999996 0.002922
vn 0.0 0.943437 0.331551
vn 0.0 0.757343 0.653017
vn 0.0 0.757343 0.653017
vn 0.0 0.943437 0.331551
vn 0.0 0.505719 0.862698
vn 0.0 0.757343 0.653017
vn 0.0 0.505719 0.862698
vn 0.0 0.505719 0.862698
vn 0.0 0.750469 -0.660906
vn 0.0 0.942035 -0.335514
vn 0.0 0.493013 -0.870022
vn 0.0 0.750469 -0.660906
vn 0.0 0.493013 -0.870022
vn 0.0 0.493013 -0.870022
vn 0.0 0.999996 -0.002922
vn 0.0 0.999995 0.003084
vn 0.0 0.942035 -0.335514
vn 0.0 0.999996 -0.002922
vn 0.0 0.942035 -0.335514
vn 0.0 0.750469 -0.660906
vn 0.0 0.941996 0.335623
vn 0.0 0.750438 0.660941
vn 0.0 0.999995 0.003084
vn 0.0 0.941996 0.335623
vn 0.0 0.999995 0.003084
vn 0.0 0.999996 -0.002922
vn 0.0 0.493013 0.870022
vn 0.0 0.493013 0.870022
vn 0.0 0.750438 0.660941
vn 0.0 0.493013 0.870022
vn 0.0 0.750438 0.660941
vn 0.0 0.941996 0.335623
vn 0.0 0.505719 -0.862698
vn 0.0 0.505719 -0.862698
vn 0.0 0.757313 -0.653053
vn 0.0 0.505719 -0.862698
vn 0.0 0.757313 -0.653053
vn 0.0 0.943399 -0.33166
vn 0.0 0.943399 -0.33166
vn 0.0 0.757313 -0.653053
vn 0.0 0.999995 -0.003084
vn 0.0 0.943399 -0.33166
vn 0.0 0.999995 -0.003084
vn 0.0 0.999996 0.002922
vn 0.0 0.999996 0.002922
vn 0.0 0.999995 -0.003084
vn 0.0 0.943437 0.331551
vn 0.0 0.999996 0.002922
vn 0.0 0.943437 0.331551
vn 0.0 0.757343 0.653017
vn 0.0 0.757343 0.653017
vn 0.0 0.943437 0.331551
vn 0.0 0.505719 0.862698
vn 0.0 0.757343 0.653017
vn 0.0 0.505719 0.862698
vn 0.0 0.505719 0.862698
vn 1.0 0.0 0.0
vn 1.0 0.0 0.0
vn 1.0 0.0 0.0
vn 1.0 0.0 0.0
vn 1.0 0.0 0.0
vn 1.0 0.0 0.0
vn -1.0 0.0 0.0
vn -1.0 0.0 0.0
vn -1.0 0.0 0.0
vn -1.0 0.0 0.0
vn -1.0 0.0 0.0
vn -1.0 0.0 0.0
vn 0.0 0.0 1.0
vn 0.0 0.0 1.0
vn 0.0 0.0 1.0
vn 0.0 0.0 1.0
vn 0.0 0.0 1.0
vn 0.0 0.0 1.0
vn 0.0 0.983189 0.182592
vn 0.0 0.983189 0.182592
vn 0.0 0.983189 0.182592
vn 0.0 0.983189 0.182592
vn 0.0 0.983189 0.182592
vn 0.0 0.983189 0.182592
vn 0.0 0.983189 0.182592
vn 0.0 0.983189 0.182592
vn 0.0 0.983189 0.182592
vn 0.0 0.983189 0.182592
vn 0.0 0.983189 0.182592
vn 0.0 0.983189 0.182592
vn 0.0 0.927586 0.373611
vn 0.0 0.927586 0.373611
vn 0.0 0.927586 0.373611
vn 0.0 0.927586 0.373611
vn 0.0 0.927586 0.373611
vn 0.0 0.927586 0.373611
vn 0.0 0.384615 0.923077
vn 0.0 0.384615 0.923077
vn 0.0 0.384615 0.923077
vn 0.0 0.384615 0.923077
vn 0.0 0.384615 0.923077
vn 0.0 0.384615 0.923077
vn 0.0 0.384615 -0.923077
vn 0.0 0.384615 -0.923077
vn 0.0 0.384615 -0.923077
vn 0.0 0.384615 -0.923077
vn 0.0 0.384615 -0.923077
vn 0.0 0.384615 -0.923077
vn 0.0 1.0 0.0
vn 0.0 1.0 0.0
vn 0.0 1.0 0.0
vn 0.0 1.0 0.0
vn 0.0 1.0 0.0
vn 0.0 1.0 0.0
vn 0.0 1.0 0.0
vn 0.0 1.0 0.0
vn 0.0 1.0 0.0
vn 0.0 1.0 0.0
vn 0.0 1.0 0.0
vn 0.0 1.0 0.0
vn 0.0 1.0 0.0
vn 0.0 1.0 0.0
vn 0.0 1.0 0.0
vn 0.0 1.0 0.0
vn 0.0 1.0 0.0
vn 0.0 1.0 0.0
vn 0.0 0.948683 -0.316228
vn 0.0 0.948683 -0.316228
vn 0.0 0.948683 -0.316228
vn 0.0 0.948683 -0.316228
vn 0.0 0.948683 -0.316228
vn 0.0 0.948683 -0.316228
vn 0.0 0.0 -1.0
vn 0.0 0.0 -1.0
vn 0.0 0.0 -1.0
vn 0.0 0.0 -1.0
vn 0.0 0.0 -1.0
vn 0.0 0.0 -1.0
vn 0.0 1.0 0.0
vn 0.0 1.0 0.0
vn 0.0 1.0 0.0
vn 0.0 1.0 0.0
vn 0.0 1.0 0.0
vn 0.0 1.0 0.0
vn 1.0 0.0 0.0
vn 1.0 0.0 0.0
vn 1.0 0.0 0.0
vn 1.0 0.0 0.0
vn 1.0 0.0 0.0
vn 1.0 0.0 0.0
vn 0.0 0.0 1.0
vn 0.0 0.0 1.0
vn 0.0 0.0 1.0
vn 0.0 0.0 1.0
vn 0.0 0.0 1.0
vn 0.0 0.0 1.0
vn 0.0 0.0 -1.0
vn 0.0 0.0 -1.0
vn 0.0 0.0 -1.0
vn 0.0 0.0 -1.0
vn 0.0 0.0 -1.0
vn 0.0 0.0 -1.0
vn -1.0 0.0 0.0
vn -1.0 0.0 0.0
vn -1.0 0.0 0.0
vn -1.0 0.0 0.0
vn -1.0 0.0 0.0
vn -1.0 0.0 0.0

# default, 32 grouped triangles

usemtl tex198
o default
g default

f 4/1/1 3/2/2 2/3/3
f 4/4/4 2/5/5 1/6/6
f 6/7/7 5/8/8 3/9/9
f 6/10/10 3/11/11 4/12/12
f 8/13/13 7/14/14 5/15/15
f 8/16/16 5/17/17 6/18/18
f 10/19/19 9/20/20 7/21/21
f 10/22/22 7/23/23 8/24/24
f 10/25/25 9/26/26 11/27/27
f 10/28/28 11/29/29 12/30/30
f 12/31/31 11/32/32 13/33/33
f 12/34/34 13/35/35 14/36/36
f 14/37/37 13/38/38 15/39/39
f 14/40/40 15/41/41 16/42/42
f 16/43/43 15/44/44 2/45/45
f 16/46/46 2/47/47 1/48/48
f 60/49/49 59/50/50 58/51/51
f 60/52/52 58/53/53 57/54/54
f 62/55/55 61/56/56 59/57/57
f 62/58/58 59/59/59 60/60/60
f 64/61/61 63/62/62 61/63/63
f 64/64/64 61/65/65 62/66/66
f 66/67/67 65/68/68 63/69/69
f 66/70/70 63/71/71 64/72/72
f 66/73/73 65/74/74 67/75/75
f 66/76/76 67/77/77 68/78/78
f 68/79/79 67/80/80 69/81/81
f 68/82/82 69/83/83 70/84/84
f 70/85/85 69/86/86 71/87/87
f 70/88/88 71/89/89 72/90/90
f 72/91/91 71/92/92 58/93/93
f 72/94/94 58/95/95 57/96/96
# 2, 36 grouped triangles

usemtl tex197
o 2
g 2

f 46/97/97 43/98/98 42/99/99
f 46/100/100 42/101/101 45/102/102
f 44/103/103 48/104/104 47/105/105
f 44/106/106 47/107/107 41/108/108
f 48/109/109 46/110/110 45/111/111
f 48/112/112 45/113/113 47/114/114
f 20/115/115 19/116/116 18/117/117
f 20/118/118 18/119/119 17/120/120
f 24/121/121 23/122/122 22/123/123
f 24/124/124 22/125/125 21/126/126
f 73/127/127 74/128/128 75/129/129
f 73/130/130 75/131/131 76/132/132
f 76/133/133 75/134/134 77/135/135
f 76/136/136 77/137/137 78/138/138
f 80/139/139 79/140/140 77/141/141
f 80/142/142 77/143/143 78/144/144
f 28/145/145 27/146/146 26/147/147
f 28/148/148 26/149/149 25/150/150
f 32/151/151 31/152/152 30/153/153
f 32/154/154 30/155/155 29/156/156
f 36/157/157 35/158/158 34/159/159
f 36/160/160 34/161/161 33/162/162
f 40/163/163 39/164/164 38/165/165
f 40/166/166 38/167/167 37/168/168
f 41/169/169 42/170/170 43/171/171
f 41/172/172 43/173/173 44/174/174
f 52/175/175 51/176/176 50/177/177
f 52/178/178 50/179/179 49/180/180
f 54/181/181 53/182/182 52/183/183
f 54/184/184 52/185/185 49/186/186
f 50/187/187 55/188/188 54/189/189
f 50/190/190 54/191/191 49/192/192
f 51/193/193 52/194/194 53/195/195
f 51/196/196 53/197/197 56/198/198
f 50/199/199 51/200/200 56/201/201
f 50/202/202 56/203/203 55/204/204
