# Wavefront OBJ file
# Exported by Maverick Model 3D 1.3.12
# Fri Sep 04 08:57:36 2020

mtllib ORG_LORRY.mtl

# 66 Vertices
v 7.0625 5.5625 26.75
v 7.0625 5.5625 21.125
v 7.0625 -0.0625 21.125
v 7.0625 -0.0625 26.75
v -6.9375 -0.0625 17.1875
v -6.9375 -0.0625 11.5625
v -6.9375 5.5625 11.5625
v -6.9375 5.5625 17.1875
v -6.9375 -0.0625 -3.75
v -6.9375 -0.0625 -9.375
v -6.9375 5.5625 -9.375
v -6.9375 5.5625 -3.75
v -6.9375 -0.0625 3.5
v -6.9375 -0.0625 -2.0625
v -6.9375 5.5625 -2.0625
v -6.9375 5.5625 3.5
v -6.9375 -0.0625 26.75
v -6.9375 -0.0625 21.125
v -6.9375 5.5625 21.125
v -6.9375 5.5625 26.75
v 7.0625 5.5625 3.625
v 7.0625 5.5625 -1.9375
v 7.0625 -0.0625 -1.9375
v 7.0625 -0.0625 3.625
v 7.0625 5.5625 17.0625
v 7.0625 5.5625 11.4375
v 7.0625 -0.0625 11.4375
v 7.0625 -0.0625 17.0625
v 7.0625 5.5625 -4.0625
v 7.0625 5.5625 -9.6875
v 7.0625 -0.0625 -9.6875
v 7.0625 -0.0625 -4.0625
v -7.3125 17.4375 19.0
v -6.3125 17.4375 28.9375
v -6.8125 11.25 29.125
v -7.3125 11.3125 19.0
v 6.375 17.4375 28.875
v 7.375 17.4375 19.0
v 7.375 11.25 18.9375
v 6.8125 11.25 29.1875
v 7.375 25.5625 14.8125
v 7.375 25.5625 -13.0
v 7.375 3.8125 -13.0
v 7.3125 4.0 14.0625
v -7.3125 4.0 19.0
v -7.375 25.5625 19.1875
v 7.375 25.5625 19.1875
v 7.3125 4.0 18.9375
v -7.3125 4.0 14.375
v -7.375 3.8125 -13.0
v -7.375 25.5625 -13.0
v -7.375 25.5625 14.5
v 7.375 10.8125 14.3125
v 7.3125 11.25 19.0
v -7.375 10.375 14.4375
v -7.3125 11.0625 19.0625
v 7.375 10.0625 -13.0
v -7.375 9.375 -13.0
v -6.9375 3.8125 29.875
v 7.3125 3.8125 29.875
v 6.875 17.5 23.75
v -6.8125 17.5 23.75
v -6.875 3.8125 30.3125
v 7.3125 3.8125 30.4375
v 7.3125 3.1875 30.4375
v -6.9375 3.1875 30.4375

# 186 Texture Coordinates
vt 0.114215 0.871621
vt 0.117167 0.982427
vt 0.713552 0.983904
vt 0.114215 0.871621
vt 0.713552 0.983904
vt 0.713552 0.883441
vt 0.007928 0.862757
vt 0.007928 0.980949
vt 0.117167 0.982427
vt 0.007928 0.862757
vt 0.117167 0.982427
vt 0.114215 0.871621
vt 0.607266 0.879008
vt 0.607266 0.633759
vt 0.004976 0.630804
vt 0.607266 0.879008
vt 0.004976 0.630804
vt 0.004976 0.892305
vt 0.007928 0.731268
vt 0.010881 0.630804
vt 0.004976 0.630804
vt 0.007928 0.731268
vt 0.004976 0.630804
vt 0.004976 0.720926
vt 0.7106 0.868666
vt 0.7106 0.633759
vt 0.607266 0.633759
vt 0.7106 0.868666
vt 0.607266 0.633759
vt 0.607266 0.879008
vt 0.007928 0.862757
vt 0.114215 0.871621
vt 0.105357 0.630804
vt 0.007928 0.862757
vt 0.105357 0.630804
vt 0.010881 0.630804
vt 0.7106 0.868666
vt 0.607266 0.879008
vt 0.607266 0.983904
vt 0.7106 0.868666
vt 0.607266 0.983904
vt 0.707647 0.983904
vt 0.114215 0.871621
vt 0.713552 0.883441
vt 0.716504 0.633759
vt 0.114215 0.871621
vt 0.716504 0.633759
vt 0.105357 0.630804
vt 0.607266 0.879008
vt 0.004976 0.892305
vt 0.002023 0.982427
vt 0.607266 0.879008
vt 0.002023 0.982427
vt 0.607266 0.983904
vt 0.007928 0.980949
vt 0.007928 0.731268
vt 0.004976 0.720926
vt 0.007928 0.980949
vt 0.004976 0.720926
vt 0.002023 0.982427
vt 0.369128 0.369128
vt 0.001701 0.369128
vt 0.001701 0.001701
vt 0.369128 0.369128
vt 0.001701 0.001701
vt 0.369128 0.001701
vt 0.369128 0.001701
vt 0.001701 0.001701
vt 0.001701 0.369128
vt 0.369128 0.001701
vt 0.001701 0.369128
vt 0.369128 0.369128
vt 0.369128 0.001701
vt 0.001701 0.001701
vt 0.001701 0.369128
vt 0.369128 0.001701
vt 0.001701 0.369128
vt 0.369128 0.369128
vt 0.369128 0.001701
vt 0.001701 0.001701
vt 0.001701 0.369128
vt 0.369128 0.001701
vt 0.001701 0.369128
vt 0.369128 0.369128
vt 0.369128 0.001701
vt 0.001701 0.001701
vt 0.001701 0.369128
vt 0.369128 0.001701
vt 0.001701 0.369128
vt 0.369128 0.369128
vt 0.369128 0.369128
vt 0.001701 0.369128
vt 0.001701 0.001701
vt 0.369128 0.369128
vt 0.001701 0.001701
vt 0.369128 0.001701
vt 0.369128 0.369128
vt 0.001701 0.369128
vt 0.001701 0.001701
vt 0.369128 0.369128
vt 0.001701 0.001701
vt 0.369128 0.001701
vt 0.369128 0.369128
vt 0.001701 0.369128
vt 0.001701 0.001701
vt 0.369128 0.369128
vt 0.001701 0.001701
vt 0.369128 0.001701
vt 0.536519 0.578016
vt 0.70251 0.578016
vt 0.70251 0.412024
vt 0.536519 0.578016
vt 0.70251 0.412024
vt 0.536519 0.412024
vt 0.70251 0.412024
vt 0.536519 0.412024
vt 0.536519 0.578016
vt 0.70251 0.412024
vt 0.536519 0.578016
vt 0.70251 0.578016
vt 0.70251 0.412024
vt 0.536519 0.412024
vt 0.536519 0.578016
vt 0.70251 0.412024
vt 0.536519 0.578016
vt 0.70251 0.578016
vt 0.483203 0.620764
vt 0.483203 0.377327
vt 0.001705 0.377327
vt 0.483203 0.620764
vt 0.001705 0.377327
vt 0.001705 0.620764
vt 0.584293 0.176678
vt 0.584293 0.174354
vt 0.586617 0.174354
vt 0.584293 0.176678
vt 0.584293 0.174354
vt 0.586617 0.174354
vt 0.584293 0.176678
vt 0.584293 0.174354
vt 0.586617 0.174354
vt 0.584293 0.176678
vt 0.584293 0.174354
vt 0.586617 0.174354
vt 0.796763 0.840647
vt 0.796763 0.840191
vt 0.79722 0.840191
vt 0.796763 0.840647
vt 0.796763 0.840191
vt 0.79722 0.840191
vt 0.796763 0.840647
vt 0.796763 0.840191
vt 0.79722 0.840191
vt 0.796763 0.840647
vt 0.796763 0.840191
vt 0.79722 0.840191
vt 0.796763 0.840647
vt 0.796763 0.840191
vt 0.79722 0.840191
vt 0.796763 0.840647
vt 0.796763 0.840191
vt 0.79722 0.840191
vt 0.927972 0.530167
vt 0.927972 0.509671
vt 0.948468 0.509671
vt 0.927972 0.530167
vt 0.927972 0.509671
vt 0.948468 0.509671
vt 0.927972 0.530167
vt 0.927972 0.509671
vt 0.948468 0.509671
vt 0.927972 0.530167
vt 0.927972 0.509671
vt 0.948468 0.509671
vt 0.927972 0.530167
vt 0.927972 0.509671
vt 0.948468 0.509671
vt 0.927972 0.530167
vt 0.927972 0.509671
vt 0.948468 0.509671
vt 0.927972 0.530167
vt 0.927972 0.509671
vt 0.948468 0.509671
vt 0.927972 0.530167
vt 0.927972 0.509671
vt 0.948468 0.509671

# 186 Vertex Normals
vn 0.999954 -0.009261 0.002374
vn 0.999954 -0.009261 0.002374
vn 0.999954 -0.009261 0.002374
vn 1.0 0.0 0.0
vn 1.0 0.0 0.0
vn 1.0 0.0 0.0
vn 0.999998 -0.002183 0.0
vn 0.999991 -0.00431 -0.000074
vn 1.0 0.0 0.0
vn 0.999852 -0.009695 0.014236
vn 0.999852 -0.009695 0.014236
vn 0.999852 -0.009695 0.014236
vn -1.0 0.0 0.0
vn -0.999998 -0.002155 0.0
vn -1.0 0.0 0.0
vn -1.0 0.0 0.0
vn -1.0 0.0 0.0
vn -1.0 0.0 0.0
vn 0.0 0.0 -1.0
vn 0.0 0.0 -1.0
vn 0.0 0.0 -1.0
vn 0.0 0.0 -1.0
vn 0.0 0.0 -1.0
vn 0.0 0.0 -1.0
vn -0.999998 -0.002155 0.0
vn -0.999991 -0.00431 0.0
vn -0.999998 -0.002155 0.0
vn -0.999909 -0.000056 0.013521
vn -0.999909 -0.000056 0.013521
vn -0.999909 -0.000056 0.013521
vn 0.99991 -0.000453 0.013374
vn 0.99991 -0.000453 0.013374
vn 0.99991 -0.000453 0.013374
vn 0.999998 -0.002183 0.0
vn 0.999998 -0.002183 0.0
vn 0.99999 -0.004367 0.0
vn -0.999838 -0.009949 0.01499
vn -0.999838 -0.009949 0.01499
vn -0.999838 -0.009949 0.01499
vn -0.999998 -0.002155 0.0
vn -1.0 0.0 0.0
vn -1.0 0.0 0.0
vn 1.0 0.0 0.0
vn 1.0 0.0 0.0
vn 1.0 0.0 0.0
vn 1.0 0.0 0.0
vn 1.0 0.0 0.0
vn 0.999998 -0.002183 0.0
vn -1.0 0.0 0.0
vn -1.0 0.0 0.0
vn -1.0 0.0 0.0
vn -0.999949 -0.009826 0.00235
vn -0.999949 -0.009826 0.00235
vn -0.999949 -0.009826 0.00235
vn 0.0 0.0 -1.0
vn 0.0 0.0 -1.0
vn 0.0 0.0 -1.0
vn 0.0 0.0 -1.0
vn 0.0 0.0 -1.0
vn 0.0 0.0 -1.0
vn 1.0 0.0 0.0
vn 1.0 0.0 0.0
vn 1.0 0.0 0.0
vn 1.0 0.0 0.0
vn 1.0 0.0 0.0
vn 1.0 0.0 0.0
vn -1.0 0.0 0.0
vn -1.0 0.0 0.0
vn -1.0 0.0 0.0
vn -1.0 0.0 0.0
vn -1.0 0.0 0.0
vn -1.0 0.0 0.0
vn -1.0 0.0 0.0
vn -1.0 0.0 0.0
vn -1.0 0.0 0.0
vn -1.0 0.0 0.0
vn -1.0 0.0 0.0
vn -1.0 0.0 0.0
vn -1.0 0.0 0.0
vn -1.0 0.0 0.0
vn -1.0 0.0 0.0
vn -1.0 0.0 0.0
vn -1.0 0.0 0.0
vn -1.0 0.0 0.0
vn -1.0 0.0 0.0
vn -1.0 0.0 0.0
vn -1.0 0.0 0.0
vn -1.0 0.0 0.0
vn -1.0 0.0 0.0
vn -1.0 0.0 0.0
vn 1.0 0.0 0.0
vn 1.0 0.0 0.0
vn 1.0 0.0 0.0
vn 1.0 0.0 0.0
vn 1.0 0.0 0.0
vn 1.0 0.0 0.0
vn 1.0 0.0 0.0
vn 1.0 0.0 0.0
vn 1.0 0.0 0.0
vn 1.0 0.0 0.0
vn 1.0 0.0 0.0
vn 1.0 0.0 0.0
vn 1.0 0.0 0.0
vn 1.0 0.0 0.0
vn 1.0 0.0 0.0
vn 1.0 0.0 0.0
vn 1.0 0.0 0.0
vn 1.0 0.0 0.0
vn -0.995399 0.081941 0.049661
vn -0.995399 0.081941 0.049661
vn -0.995399 0.081941 0.049661
vn -0.994975 0.0 0.100123
vn -0.994975 0.0 0.100123
vn -0.994975 0.0 0.100123
vn 0.998497 -0.000553 0.054796
vn 0.998497 -0.000553 0.054796
vn 0.998497 -0.000553 0.054796
vn 0.992093 0.075222 0.100465
vn 0.992093 0.075222 0.100465
vn 0.992093 0.075222 0.100465
vn 0.00492 0.050787 0.998697
vn 0.00492 0.050787 0.998697
vn 0.00492 0.050787 0.998697
vn -0.004585 0.030659 0.999519
vn -0.004585 0.030659 0.999519
vn -0.004585 0.030659 0.999519
vn -0.004568 0.091739 0.995773
vn -0.004568 0.091739 0.995773
vn -0.004568 0.091739 0.995773
vn 0.0 0.100332 0.994954
vn 0.0 0.100332 0.994954
vn 0.0 0.100332 0.994954
vn 0.0 0.0 1.0
vn 0.0 0.0 1.0
vn 0.0 0.0 1.0
vn -0.008638 0.196939 0.980378
vn -0.008638 0.196939 0.980378
vn -0.008638 0.196939 0.980378
vn 0.0 1.0 0.0
vn 0.0 1.0 0.0
vn 0.0 1.0 0.0
vn 0.0 1.0 0.0
vn 0.0 1.0 0.0
vn 0.0 1.0 0.0
vn 0.0 -0.023071 0.999734
vn 0.0 -0.023071 0.999734
vn 0.0 -0.023071 0.999734
vn 0.0 -0.023071 0.999734
vn 0.0 -0.023071 0.999734
vn 0.0 -0.023071 0.999734
vn 0.0 1.0 0.0
vn 0.0 1.0 0.0
vn 0.0 1.0 0.0
vn 0.0 1.0 0.0
vn 0.0 1.0 0.0
vn 0.0 1.0 0.0
vn 0.0 1.0 0.0
vn 0.0 1.0 0.0
vn 0.0 1.0 0.0
vn 0.0 1.0 0.0
vn 0.0 1.0 0.0
vn 0.0 1.0 0.0
vn -0.999188 0.020303 0.034805
vn -0.999188 0.020303 0.034805
vn -0.999188 0.020303 0.034805
vn -0.998783 0.0 0.049323
vn -0.998783 0.0 0.049323
vn -0.998783 0.0 0.049323
vn 0.999963 -0.00862 -0.000148
vn 0.999991 -0.00431 -0.000074
vn 0.999963 -0.00862 -0.000148
vn 0.995906 0.072004 0.054653
vn 0.995906 0.072004 0.054653
vn 0.995906 0.072004 0.054653
vn 0.0 0.999913 -0.013157
vn 0.0 0.999913 -0.013157
vn 0.0 0.999913 -0.013157
vn 0.0 0.999913 -0.013157
vn 0.0 0.999913 -0.013157
vn 0.0 0.999913 -0.013157
vn 0.00003 0.999927 0.012124
vn 0.00006 0.999926 0.0122
vn 0.00003 0.999927 0.012124
vn 0.00003 0.999927 0.012124
vn 0.00003 0.999927 0.012124
vn 0.0 0.999927 0.012047

# default, 62 grouped triangles

usemtl lorry
o default
g default

f 53/1/1 44/2/2 43/3/3
f 53/4/4 43/5/5 57/6/6
f 54/7/7 48/8/8 44/9/9
f 54/10/10 44/11/11 53/12/12
f 55/13/13 52/14/14 51/15/15
f 55/16/16 51/17/17 58/18/18
f 57/19/19 43/20/20 50/21/21
f 57/22/22 50/23/23 58/24/24
f 56/25/25 46/26/26 52/27/27
f 56/28/28 52/29/29 55/30/30
f 54/31/31 53/32/32 41/33/33
f 54/34/34 41/35/35 47/36/36
f 56/37/37 55/38/38 49/39/39
f 56/40/40 49/41/41 45/42/42
f 53/43/43 57/44/44 42/45/45
f 53/46/46 42/47/47 41/48/48
f 55/49/49 58/50/50 50/51/51
f 55/52/52 50/53/53 49/54/54
f 42/55/55 57/56/56 58/57/57
f 42/58/58 58/59/59 51/60/60
f 4/61/61 3/62/62 2/63/63
f 4/64/64 2/65/65 1/66/66
f 8/67/67 7/68/68 6/69/69
f 8/70/70 6/71/71 5/72/72
f 12/73/73 11/74/74 10/75/75
f 12/76/76 10/77/77 9/78/78
f 16/79/79 15/80/80 14/81/81
f 16/82/82 14/83/83 13/84/84
f 20/85/85 19/86/86 18/87/87
f 20/88/88 18/89/89 17/90/90
f 24/91/91 23/92/92 22/93/93
f 24/94/94 22/95/95 21/96/96
f 28/97/97 27/98/98 26/99/99
f 28/100/100 26/101/101 25/102/102
f 32/103/103 31/104/104 30/105/105
f 32/106/106 30/107/107 29/108/108
f 36/109/109 35/110/110 34/111/111
f 36/112/112 34/113/113 33/114/114
f 40/115/115 39/116/116 38/117/117
f 40/118/118 38/119/119 37/120/120
f 40/121/121 37/122/122 34/123/123
f 40/124/124 34/125/125 35/126/126
f 60/127/127 40/128/128 35/129/129
f 60/130/130 35/131/131 59/132/132
f 66/133/133 65/134/134 64/135/135
f 66/136/136 64/137/137 63/138/138
f 63/139/139 64/140/140 60/141/141
f 63/142/142 60/143/143 59/144/144
f 33/145/145 38/146/146 47/147/147
f 33/148/148 47/149/149 46/150/150
f 41/151/151 42/152/152 51/153/153
f 41/154/154 51/155/155 52/156/156
f 47/157/157 41/158/158 52/159/159
f 47/160/160 52/161/161 46/162/162
f 45/163/163 59/164/164 35/165/165
f 45/166/166 35/167/167 36/168/168
f 60/169/169 48/170/170 39/171/171
f 60/172/172 39/173/173 40/174/174
f 62/175/175 61/176/176 38/177/177
f 62/178/178 38/179/179 33/180/180
f 34/181/181 37/182/182 61/183/183
f 34/184/184 61/185/185 62/186/186
