# Wavefront OBJ file
# Exported by Maverick Model 3D 1.3.12
# Fri Sep 04 09:01:43 2020

mtllib ORG_TRUCK_GREEN.mtl

# 88 Vertices
v 5.75 5.5625 -3.75
v 5.75 5.5625 -9.375
v 5.75 -0.0625 -9.375
v 5.75 -0.0625 -3.75
v 5.6875 4.6875 9.5625
v 5.6875 4.6875 3.9375
v 5.6875 -0.0625 3.9375
v 5.6875 -0.0625 9.5625
v -5.8125 4.6875 9.5625
v -5.8125 4.6875 3.9375
v -5.8125 -0.0625 3.9375
v -5.8125 -0.0625 9.5625
v -5.8125 5.5625 -3.75
v -5.8125 5.5625 -9.375
v -5.8125 -0.0625 -9.375
v -5.8125 -0.0625 -3.75
v 6.3125 5.8125 -2.0625
v 6.3125 5.8125 -8.875
v 6.8125 5.8125 -8.875
v 6.8125 5.8125 -2.0625
v 6.0625 7.125 -5.4375
v 6.8125 7.125 -5.4375
v 6.125 5.8125 10.1875
v 6.3125 5.8125 3.375
v 6.8125 5.8125 3.375
v 6.8125 5.8125 10.1875
v 6.0625 7.125 6.8125
v 6.8125 7.125 6.8125
v -5.9375 5.8125 -2.0625
v -6.8125 5.8125 -2.0625
v -6.8125 7.125 -5.4375
v -6.0625 7.125 -5.4375
v -6.8125 5.8125 -8.875
v -6.3125 5.8125 -8.875
v -4.1875 13.6875 -2.625
v -4.1875 13.6875 -3.0
v 4.1875 13.6875 -3.0
v 4.1875 13.6875 -2.625
v -5.75 5.5625 -2.625
v -5.75 5.5625 -3.0
v 5.75 5.5625 -3.0
v 5.75 5.5625 -2.625
v -4.5 12.4375 -2.6875
v -4.5625 12.8125 -2.9375
v -5.75 7.125 -6.75
v -5.6875 6.8125 -6.375
v -3.9375 12.4375 -2.625
v -4.125 12.8125 -3.0625
v -5.3125 7.125 -6.8125
v -5.1875 6.75 -6.4375
v -5.25 13.1875 -1.875
v -5.9375 9.0625 5.375
v -5.1875 13.1875 2.1875
v 5.1875 13.1875 2.125
v 5.9375 9.0625 5.4375
v 5.25 13.1875 -1.875
v 5.625 9.0 -2.125
v -5.5625 9.125 -2.0625
v -6.0 4.0 11.4375
v -6.4375 4.1875 5.0
v 6.375 4.1875 4.9375
v 6.375 4.0 11.4375
v -6.25 5.375 -11.125
v -6.375 5.375 -2.3125
v 6.375 5.375 -2.3125
v 6.3125 5.375 -11.1875
v 5.6875 8.1875 11.0
v -5.5625 8.1875 11.0
v -6.0 4.0 11.8125
v 6.375 3.375 11.875
v -6.0 3.375 11.875
v 6.375 4.0 11.875
v 4.125 12.8125 -3.0
v 4.0625 12.4375 -2.75
v 5.25 6.8125 -6.4375
v 5.375 7.125 -6.8125
v 4.5625 12.8125 -2.9375
v 5.875 7.125 -6.6875
v 5.6875 6.75 -6.3125
v 4.4375 12.4375 -2.5625
v -5.9375 5.8125 10.1875
v -6.8125 5.8125 10.1875
v -6.8125 7.125 6.8125
v -6.0625 7.125 6.8125
v -6.8125 5.8125 3.375
v -6.3125 5.8125 3.375
v 5.625 9.0 -11.1875
v -5.75 9.0 -11.1875

# 252 Texture Coordinates
vt 0.775232 0.475023
vt 0.039283 0.475023
vt 0.039283 0.104483
vt 0.775232 0.475023
vt 0.039283 0.104483
vt 0.775232 0.104483
vt 0.775232 0.475023
vt 0.039283 0.475023
vt 0.039283 0.104483
vt 0.775232 0.475023
vt 0.039283 0.104483
vt 0.775232 0.104483
vt 0.775232 0.104483
vt 0.039283 0.104483
vt 0.039283 0.475023
vt 0.775232 0.104483
vt 0.039283 0.475023
vt 0.775232 0.475023
vt 0.775232 0.104483
vt 0.039283 0.104483
vt 0.039283 0.475023
vt 0.775232 0.104483
vt 0.039283 0.475023
vt 0.775232 0.475023
vt 0.140449 0.593838
vt 0.185647 0.593838
vt 0.185647 0.585142
vt 0.140449 0.593838
vt 0.185647 0.585142
vt 0.140449 0.585142
vt 0.185647 0.585142
vt 0.140449 0.585142
vt 0.140449 0.593838
vt 0.185647 0.585142
vt 0.140449 0.593838
vt 0.185647 0.593838
vt 0.185647 0.585142
vt 0.140449 0.585142
vt 0.140449 0.593838
vt 0.185647 0.585142
vt 0.140449 0.593838
vt 0.185647 0.593838
vt 0.185647 0.585142
vt 0.140449 0.585142
vt 0.140449 0.593838
vt 0.185647 0.585142
vt 0.140449 0.593838
vt 0.185647 0.593838
vt 0.955678 0.99808
vt 0.955678 0.753889
vt 0.002915 0.753889
vt 0.955678 0.99808
vt 0.002915 0.753889
vt 0.002915 0.99808
vt 0.251795 0.686579
vt 0.251795 0.686579
vt 0.251795 0.686579
vt 0.251795 0.686579
vt 0.251795 0.686579
vt 0.251795 0.686579
vt 0.251795 0.686579
vt 0.251795 0.686579
vt 0.251795 0.686579
vt 0.251795 0.686579
vt 0.251795 0.686579
vt 0.251795 0.686579
vt 0.251795 0.686579
vt 0.251795 0.686579
vt 0.251795 0.686579
vt 0.251795 0.686579
vt 0.251795 0.686579
vt 0.251795 0.686579
vt 0.251795 0.686579
vt 0.251795 0.686579
vt 0.251795 0.686579
vt 0.251795 0.686579
vt 0.251795 0.686579
vt 0.251795 0.686579
vt 0.251795 0.686579
vt 0.251795 0.686579
vt 0.251795 0.686579
vt 0.251795 0.686579
vt 0.251795 0.686579
vt 0.251795 0.686579
vt 0.251795 0.686579
vt 0.251795 0.686579
vt 0.251795 0.686579
vt 0.251795 0.686579
vt 0.251795 0.686579
vt 0.251795 0.686579
vt 0.251795 0.686579
vt 0.251795 0.686579
vt 0.251795 0.686579
vt 0.251795 0.686579
vt 0.251795 0.686579
vt 0.251795 0.686579
vt 0.251795 0.686579
vt 0.251795 0.686579
vt 0.251795 0.686579
vt 0.251795 0.686579
vt 0.251795 0.686579
vt 0.251795 0.686579
vt 0.251795 0.686579
vt 0.251795 0.686579
vt 0.251795 0.686579
vt 0.251795 0.686579
vt 0.251795 0.686579
vt 0.251795 0.686579
vt 0.251795 0.686579
vt 0.251795 0.686579
vt 0.251795 0.686579
vt 0.251795 0.686579
vt 0.251795 0.686579
vt 0.251795 0.686579
vt 0.251795 0.686579
vt 0.251795 0.686579
vt 0.251795 0.686579
vt 0.251795 0.686579
vt 0.251795 0.686579
vt 0.251795 0.686579
vt 0.595293 0.658036
vt 0.595293 0.658036
vt 0.595293 0.658036
vt 0.595293 0.658036
vt 0.595293 0.658036
vt 0.595293 0.658036
vt 0.595293 0.658036
vt 0.595293 0.658036
vt 0.595293 0.658036
vt 0.595293 0.658036
vt 0.595293 0.658036
vt 0.595293 0.658036
vt 0.595293 0.658036
vt 0.595293 0.658036
vt 0.595293 0.658036
vt 0.595293 0.658036
vt 0.595293 0.658036
vt 0.595293 0.658036
vt 0.595293 0.658036
vt 0.595293 0.658036
vt 0.595293 0.658036
vt 0.595293 0.658036
vt 0.595293 0.658036
vt 0.595293 0.658036
vt 0.595293 0.658036
vt 0.595293 0.658036
vt 0.595293 0.658036
vt 0.595293 0.658036
vt 0.595293 0.658036
vt 0.595293 0.658036
vt 0.595293 0.658036
vt 0.595293 0.658036
vt 0.595293 0.658036
vt 0.595293 0.658036
vt 0.595293 0.658036
vt 0.595293 0.658036
vt 0.595293 0.658036
vt 0.595293 0.658036
vt 0.595293 0.658036
vt 0.595293 0.658036
vt 0.595293 0.658036
vt 0.595293 0.658036
vt 0.595293 0.658036
vt 0.595293 0.658036
vt 0.595293 0.658036
vt 0.595293 0.658036
vt 0.595293 0.658036
vt 0.595293 0.658036
vt 0.595293 0.658036
vt 0.595293 0.658036
vt 0.595293 0.658036
vt 0.595293 0.658036
vt 0.595293 0.658036
vt 0.595293 0.658036
vt 0.595293 0.658036
vt 0.595293 0.658036
vt 0.595293 0.658036
vt 0.595293 0.658036
vt 0.595293 0.658036
vt 0.595293 0.658036
vt 0.595293 0.658036
vt 0.595293 0.658036
vt 0.595293 0.658036
vt 0.595293 0.658036
vt 0.595293 0.658036
vt 0.595293 0.658036
vt 0.595293 0.658036
vt 0.595293 0.658036
vt 0.595293 0.658036
vt 0.595293 0.658036
vt 0.595293 0.658036
vt 0.595293 0.658036
vt 0.595293 0.658036
vt 0.595293 0.658036
vt 0.595293 0.658036
vt 0.595293 0.658036
vt 0.595293 0.658036
vt 0.595293 0.658036
vt 0.595293 0.658036
vt 0.595293 0.658036
vt 0.595293 0.658036
vt 0.595293 0.658036
vt 0.595293 0.658036
vt 0.595293 0.658036
vt 0.595293 0.658036
vt 0.595293 0.658036
vt 0.595293 0.658036
vt 0.595293 0.658036
vt 0.595293 0.658036
vt 0.595293 0.658036
vt 0.595293 0.658036
vt 0.595293 0.658036
vt 0.595293 0.658036
vt 0.595293 0.658036
vt 0.595293 0.658036
vt 0.595293 0.658036
vt 0.595293 0.658036
vt 0.595293 0.658036
vt 0.595293 0.658036
vt 0.595293 0.658036
vt 0.595293 0.658036
vt 0.595293 0.658036
vt 0.595293 0.658036
vt 0.595293 0.658036
vt 0.595293 0.658036
vt 0.595293 0.658036
vt 0.595293 0.658036
vt 0.595293 0.658036
vt 0.595293 0.658036
vt 0.595293 0.658036
vt 0.595293 0.658036
vt 0.595293 0.658036
vt 0.595293 0.658036
vt 0.595293 0.658036
vt 0.595293 0.658036
vt 0.595293 0.658036
vt 0.595293 0.658036
vt 0.595293 0.658036
vt 0.595293 0.658036
vt 0.595293 0.658036
vt 0.595293 0.658036
vt 0.595293 0.658036
vt 0.595293 0.658036
vt 0.595293 0.658036
vt 0.595293 0.658036
vt 0.595293 0.658036
vt 0.595293 0.658036
vt 0.595293 0.658036
vt 0.595293 0.658036
vt 0.595293 0.658036
vt 0.595293 0.658036
vt 0.595293 0.658036

# 252 Vertex Normals
vn 1.0 0.0 0.0
vn 1.0 0.0 0.0
vn 1.0 0.0 0.0
vn 1.0 0.0 0.0
vn 1.0 0.0 0.0
vn 1.0 0.0 0.0
vn 1.0 0.0 0.0
vn 1.0 0.0 0.0
vn 1.0 0.0 0.0
vn 1.0 0.0 0.0
vn 1.0 0.0 0.0
vn 1.0 0.0 0.0
vn -1.0 0.0 0.0
vn -1.0 0.0 0.0
vn -1.0 0.0 0.0
vn -1.0 0.0 0.0
vn -1.0 0.0 0.0
vn -1.0 0.0 0.0
vn -1.0 0.0 0.0
vn -1.0 0.0 0.0
vn -1.0 0.0 0.0
vn -1.0 0.0 0.0
vn -1.0 0.0 0.0
vn -1.0 0.0 0.0
vn -0.780115 0.146612 -0.608215
vn -0.81969 0.539264 0.19314
vn -0.46466 0.809121 0.359743
vn -0.780115 0.146612 -0.608215
vn -0.46466 0.809121 0.359743
vn -0.555555 0.625263 -0.548092
vn 0.828713 0.478858 0.289707
vn 0.445204 0.820436 0.358717
vn -0.46466 0.809121 0.359743
vn 0.828713 0.478858 0.289707
vn -0.46466 0.809121 0.359743
vn -0.81969 0.539264 0.19314
vn 0.828713 0.478858 0.289707
vn 0.781807 0.148981 -0.605461
vn 0.532977 0.64547 -0.547087
vn 0.828713 0.478858 0.289707
vn 0.532977 0.64547 -0.547087
vn 0.445204 0.820436 0.358717
vn 0.532977 0.64547 -0.547087
vn 0.781807 0.148981 -0.605461
vn -0.780115 0.146612 -0.608215
vn 0.532977 0.64547 -0.547087
vn -0.780115 0.146612 -0.608215
vn -0.555555 0.625263 -0.548092
vn 0.524271 0.653176 0.546352
vn 0.349254 0.799519 0.488663
vn -0.358042 0.473004 0.80503
vn 0.524271 0.653176 0.546352
vn -0.358042 0.473004 0.80503
vn -0.750925 0.497014 0.434844
vn 0.409333 0.912385 0.0
vn 0.818666 0.574269 0.0
vn -0.409333 0.912385 0.0
vn 0.409333 0.912385 0.0
vn -0.409333 0.912385 0.0
vn -0.818666 0.574269 0.0
vn -0.982006 0.188847 0.0
vn -0.982006 0.188847 0.0
vn -0.818666 0.574269 0.0
vn -0.982006 0.188847 0.0
vn -0.818666 0.574269 0.0
vn -0.409333 0.912385 0.0
vn 0.982006 0.188847 0.0
vn 0.982006 0.188847 0.0
vn 0.818666 0.574269 0.0
vn 0.982006 0.188847 0.0
vn 0.818666 0.574269 0.0
vn 0.409333 0.912385 0.0
vn -0.969056 0.042004 0.243242
vn -0.594075 0.527294 -0.607483
vn -0.942062 0.299909 -0.150246
vn -0.969056 0.042004 0.243242
vn -0.942062 0.299909 -0.150246
vn -0.974312 0.064176 0.215865
vn -0.594075 0.527294 -0.607483
vn 0.721167 0.267936 -0.638849
vn 0.263058 0.494966 -0.828136
vn -0.594075 0.527294 -0.607483
vn 0.263058 0.494966 -0.828136
vn -0.942062 0.299909 -0.150246
vn 0.721167 0.267936 -0.638849
vn 0.930337 0.039885 -0.364529
vn 0.94096 0.023103 -0.337728
vn 0.721167 0.267936 -0.638849
vn 0.94096 0.023103 -0.337728
vn 0.263058 0.494966 -0.828136
vn -0.002163 0.903649 0.428269
vn -0.002206 0.482672 0.875798
vn 0.524271 0.653176 0.546352
vn -0.002163 0.903649 0.428269
vn 0.524271 0.653176 0.546352
vn -0.750925 0.497014 0.434844
vn -0.002516 0.049813 0.998755
vn 0.0 0.0 1.0
vn -0.002206 0.482672 0.875798
vn -0.002516 0.049813 0.998755
vn -0.002206 0.482672 0.875798
vn -0.002163 0.903649 0.428269
vn -0.754077 0.244484 -0.609586
vn -0.949805 0.00455 -0.31281
vn -0.955356 -0.010226 -0.295281
vn -0.754077 0.244484 -0.609586
vn -0.955356 -0.010226 -0.295281
vn -0.282349 0.488154 -0.825823
vn 0.840269 0.419228 -0.343797
vn -0.754077 0.244484 -0.609586
vn -0.282349 0.488154 -0.825823
vn 0.840269 0.419228 -0.343797
vn -0.282349 0.488154 -0.825823
vn 0.815048 0.438092 -0.379173
vn 0.93254 -0.027225 0.360038
vn 0.915719 -0.060644 0.397216
vn 0.840269 0.419228 -0.343797
vn 0.93254 -0.027225 0.360038
vn 0.840269 0.419228 -0.343797
vn 0.815048 0.438092 -0.379173
vn 0.0 0.992239 -0.124349
vn 0.0 0.934218 -0.356702
vn 0.0 0.934218 -0.356702
vn 0.0 0.992239 -0.124349
vn 0.0 0.934218 -0.356702
vn 0.0 0.991454 0.130456
vn 0.0 0.932005 0.362446
vn 0.0 0.992239 -0.124349
vn 0.0 0.991454 0.130456
vn 0.0 0.932005 0.362446
vn 0.0 0.991454 0.130456
vn 0.0 0.932005 0.362446
vn 0.0 0.992239 -0.124349
vn 0.0 0.934218 -0.356702
vn 0.0 0.934218 -0.356702
vn 0.0 0.992239 -0.124349
vn 0.0 0.934218 -0.356702
vn 0.0 0.991454 0.130456
vn 0.0 0.932005 0.362446
vn 0.0 0.992239 -0.124349
vn 0.0 0.991454 0.130456
vn 0.0 0.932005 0.362446
vn 0.0 0.991454 0.130456
vn 0.0 0.932005 0.362446
vn 0.0 0.991454 0.130456
vn 0.0 0.992239 -0.124349
vn 0.0 0.932005 0.362446
vn 0.0 0.991454 0.130456
vn 0.0 0.932005 0.362446
vn 0.0 0.932005 0.362446
vn 0.0 0.934218 -0.356702
vn 0.0 0.934218 -0.356702
vn 0.0 0.992239 -0.124349
vn 0.0 0.934218 -0.356702
vn 0.0 0.992239 -0.124349
vn 0.0 0.991454 0.130456
vn -0.375391 0.496102 -0.78292
vn -0.99432 0.09897 0.039145
vn -0.81969 0.539264 0.19314
vn -0.375391 0.496102 -0.78292
vn -0.81969 0.539264 0.19314
vn -0.780115 0.146612 -0.608215
vn 0.349254 0.799519 0.488663
vn 0.828713 0.478858 0.289707
vn -0.81969 0.539264 0.19314
vn 0.349254 0.799519 0.488663
vn -0.81969 0.539264 0.19314
vn -0.358042 0.473004 0.80503
vn 0.991761 0.128086 -0.00214
vn -0.00153 0.905953 -0.423375
vn 0.781807 0.148981 -0.605461
vn 0.991761 0.128086 -0.00214
vn 0.781807 0.148981 -0.605461
vn 0.828713 0.478858 0.289707
vn -0.46466 0.809121 0.359743
vn 0.445204 0.820436 0.358717
vn 0.532977 0.64547 -0.547087
vn -0.46466 0.809121 0.359743
vn 0.532977 0.64547 -0.547087
vn -0.555555 0.625263 -0.548092
vn 0.781807 0.148981 -0.605461
vn -0.00153 0.905953 -0.423375
vn -0.375391 0.496102 -0.78292
vn 0.781807 0.148981 -0.605461
vn -0.375391 0.496102 -0.78292
vn -0.780115 0.146612 -0.608215
vn -0.00153 0.905953 -0.423375
vn 0.527678 0.656671 0.538831
vn -0.374396 0.847573 -0.376094
vn -0.00153 0.905953 -0.423375
vn -0.374396 0.847573 -0.376094
vn -0.375391 0.496102 -0.78292
vn 0.524271 0.653176 0.546352
vn 0.991761 0.128086 -0.00214
vn 0.828713 0.478858 0.289707
vn 0.524271 0.653176 0.546352
vn 0.828713 0.478858 0.289707
vn 0.349254 0.799519 0.488663
vn -0.750925 0.497014 0.434844
vn -0.358042 0.473004 0.80503
vn -0.81969 0.539264 0.19314
vn -0.750925 0.497014 0.434844
vn -0.81969 0.539264 0.19314
vn -0.99432 0.09897 0.039145
vn 0.0 0.991454 0.130456
vn 0.0 0.992239 -0.124349
vn 0.0 0.932005 0.362446
vn 0.0 0.991454 0.130456
vn 0.0 0.932005 0.362446
vn 0.0 0.932005 0.362446
vn 0.0 0.934218 -0.356702
vn 0.0 0.934218 -0.356702
vn 0.0 0.992239 -0.124349
vn 0.0 0.934218 -0.356702
vn 0.0 0.992239 -0.124349
vn 0.0 0.991454 0.130456
vn 0.527678 0.656671 0.538831
vn -0.695368 -0.155989 -0.70152
vn 0.687797 -0.147545 0.71075
vn 0.527678 0.656671 0.538831
vn 0.687797 -0.147545 0.71075
vn -0.374396 0.847573 -0.376094
vn -0.374396 0.847573 -0.376094
vn 0.687797 -0.147545 0.71075
vn -0.695368 -0.155989 -0.70152
vn -0.374396 0.847573 -0.376094
vn -0.695368 -0.155989 -0.70152
vn 0.527678 0.656671 0.538831
vn -0.00153 0.905953 -0.423375
vn 0.781807 0.148981 -0.605461
vn -0.695368 -0.155989 -0.70152
vn -0.00153 0.905953 -0.423375
vn -0.695368 -0.155989 -0.70152
vn 0.527678 0.656671 0.538831
vn 0.527678 0.656671 0.538831
vn -0.695368 -0.155989 -0.70152
vn 0.781807 0.148981 -0.605461
vn 0.527678 0.656671 0.538831
vn 0.781807 0.148981 -0.605461
vn -0.00153 0.905953 -0.423375
vn 0.687797 -0.147545 0.71075
vn -0.780115 0.146612 -0.608215
vn -0.375391 0.496102 -0.78292
vn 0.687797 -0.147545 0.71075
vn -0.375391 0.496102 -0.78292
vn -0.374396 0.847573 -0.376094
vn -0.374396 0.847573 -0.376094
vn -0.375391 0.496102 -0.78292
vn -0.780115 0.146612 -0.608215
vn -0.374396 0.847573 -0.376094
vn -0.780115 0.146612 -0.608215
vn 0.687797 -0.147545 0.71075

# default, 84 grouped triangles

usemtl truck
o default
g default

f 4/1/1 3/2/2 2/3/3
f 4/4/4 2/5/5 1/6/6
f 8/7/7 7/8/8 6/9/9
f 8/10/10 6/11/11 5/12/12
f 9/13/13 10/14/14 11/15/15
f 9/16/16 11/17/17 12/18/18
f 13/19/19 14/20/20 15/21/21
f 13/22/22 15/23/23 16/24/24
f 58/25/25 52/26/26 53/27/27
f 58/28/28 53/29/29 51/30/30
f 55/31/31 54/32/32 53/33/33
f 55/34/34 53/35/35 52/36/36
f 55/37/37 57/38/38 56/39/39
f 55/40/40 56/41/41 54/42/42
f 56/43/43 57/44/44 58/45/45
f 56/46/46 58/47/47 51/48/48
f 62/49/49 67/50/50 68/51/51
f 62/52/52 68/53/53 59/54/54
f 38/55/55 37/56/56 36/57/57
f 38/58/58 36/59/59 35/60/60
f 40/61/61 39/62/62 35/63/63
f 40/64/64 35/65/65 36/66/66
f 42/67/67 41/68/68 37/69/69
f 42/70/70 37/71/71 38/72/72
f 43/73/73 44/74/74 45/75/75
f 43/76/76 45/77/77 46/78/78
f 44/79/79 48/80/80 49/81/81
f 44/82/82 49/83/83 45/84/84
f 48/85/85 47/86/86 50/87/87
f 48/88/88 50/89/89 49/90/90
f 69/91/91 72/92/92 62/93/93
f 69/94/94 62/95/95 59/96/96
f 71/97/97 70/98/98 72/99/99
f 71/100/100 72/101/101 69/102/102
f 76/103/103 75/104/104 74/105/105
f 76/106/106 74/107/107 73/108/108
f 78/109/109 76/110/110 73/111/111
f 78/112/112 73/113/113 77/114/114
f 80/115/115 79/116/116 78/117/117
f 80/118/118 78/119/119 77/120/120
f 22/121/121 19/122/122 18/123/123
f 22/124/124 18/125/125 21/126/126
f 20/127/127 22/128/128 21/129/129
f 20/130/130 21/131/131 17/132/132
f 28/133/133 25/134/134 24/135/135
f 28/136/136 24/137/137 27/138/138
f 26/139/139 28/140/140 27/141/141
f 26/142/142 27/143/143 23/144/144
f 32/145/145 31/146/146 30/147/147
f 32/148/148 30/149/149 29/150/150
f 34/151/151 33/152/152 31/153/153
f 34/154/154 31/155/155 32/156/156
f 64/157/157 60/158/158 52/159/159
f 64/160/160 52/161/161 58/162/162
f 67/163/163 55/164/164 52/165/165
f 67/166/166 52/167/167 68/168/168
f 61/169/169 65/170/170 57/171/171
f 61/172/172 57/173/173 55/174/174
f 53/175/175 54/176/176 56/177/177
f 53/178/178 56/179/179 51/180/180
f 57/181/181 65/182/182 64/183/183
f 57/184/184 64/185/185 58/186/186
f 65/187/187 66/188/188 63/189/189
f 65/190/190 63/191/191 64/192/192
f 62/193/193 61/194/194 55/195/195
f 62/196/196 55/197/197 67/198/198
f 59/199/199 68/200/200 52/201/201
f 59/202/202 52/203/203 60/204/204
f 84/205/205 83/206/206 82/207/207
f 84/208/208 82/209/209 81/210/210
f 86/211/211 85/212/212 83/213/213
f 86/214/214 83/215/215 84/216/216
f 66/217/217 87/218/218 88/219/219
f 66/220/220 88/221/221 63/222/222
f 63/223/223 88/224/224 87/225/225
f 63/226/226 87/227/227 66/228/228
f 65/229/229 57/230/230 87/231/231
f 65/232/232 87/233/233 66/234/234
f 66/235/235 87/236/236 57/237/237
f 66/238/238 57/239/239 65/240/240
f 88/241/241 58/242/242 64/243/243
f 88/244/244 64/245/245 63/246/246
f 63/247/247 64/248/248 58/249/249
f 63/250/250 58/251/251 88/252/252
